# xmcd CD database file
#
# Track frame offsets:
#	150
#	12843
#	22221
#	33780
#	44778
#	60086
#	70404
#	80278
#	95612
#	108086
#	120193
#	138048
#	150757
#	164001
#	177297
#
# Disc length: 2554 seconds
#
# Revision: 0
# Processed by: cddbd v1.5.1PL2 Copyright (c) Steve Scherf et al.
# Submitted via: CDex 1.40Release
#
DISCID=af09f80f
DTITLE=Roger Humphries - un-plugged, solo and acoustic
DYEAR=2005
DGENRE=Country
TTITLE0=singing from the bottle
TTITLE1=in a young girls mind
TTITLE2=help!
TTITLE3=you said you'd go
TTITLE4=tennessee whiskey
TTITLE5=the t.b. blues
TTITLE6=old cowboy songs
TTITLE7=keep it country
TTITLE8=play no games
TTITLE9=the crying game
TTITLE10=home is where the heart is
TTITLE11=the fool you left behind
TTITLE12=i'll head out in the rain
TTITLE13=thinking about you
TTITLE14=we're gonna have a party
EXTD=YEAR: 2005 ID3G: 2
EXTT0=
EXTT1=
EXTT2=
EXTT3=
EXTT4=
EXTT5=
EXTT6=
EXTT7=
EXTT8=
EXTT9=
EXTT10=
EXTT11=
EXTT12=
EXTT13=
EXTT14=
PLAYORDER=
